HIERARCHY
ROOT RootJoint
{
    OFFSET   0.000000   0.000000   0.000000
    CHANNELS 6 Xposition Yposition Zposition Xrotation Yrotation Zrotation
    JOINT pelvis_lowerback
    {
        OFFSET   0.000000   0.093605   0.000000
        CHANNELS 3 Xrotation Yrotation Zrotation
        JOINT lowerback_torso
        {
            OFFSET   0.000000   0.100000   0.000000
            CHANNELS 3 Xrotation Yrotation Zrotation
            JOINT torso_head
            {
                OFFSET   0.000000   0.282350   0.000000
                CHANNELS 3 Xrotation Yrotation Zrotation
                End Site
                {
                    OFFSET   0.000000   0.192650   0.000000
                }
            }
            JOINT rTorso_Clavicle
            {
                OFFSET  -0.001000   0.157500   0.000000
                CHANNELS 3 Xrotation Yrotation Zrotation
                JOINT rShoulder
                {
                    OFFSET  -0.117647   0.000000   0.000000
                    CHANNELS 3 Xrotation Yrotation Zrotation
                    JOINT rElbow
                    {
                        OFFSET  -0.245000   0.000000   0.000000
                        CHANNELS 3 Xrotation Yrotation Zrotation
                        JOINT rWrist
                        {
                            OFFSET  -0.240000   0.000000   0.000000
                            CHANNELS 3 Xrotation Yrotation Zrotation
                            End Site
                            {
                                OFFSET  -0.116353  -0.002500   0.000000
                            }
                        }
                    }
                }
            }
            JOINT lTorso_Clavicle
            {
                OFFSET   0.001000   0.157500   0.000000
                CHANNELS 3 Xrotation Yrotation Zrotation
                JOINT lShoulder
                {
                    OFFSET   0.117647   0.000000   0.000000
                    CHANNELS 3 Xrotation Yrotation Zrotation
                    JOINT lElbow
                    {
                        OFFSET   0.245000   0.000000   0.000000
                        CHANNELS 3 Xrotation Yrotation Zrotation
                        JOINT lWrist
                        {
                            OFFSET   0.240000   0.000000   0.000000
                            CHANNELS 3 Xrotation Yrotation Zrotation
                            End Site
                            {
                                OFFSET   0.116353  -0.002500   0.000000
                            }
                        }
                    }
                }
            }
        }
    }
    JOINT rHip
    {
        OFFSET  -0.100000  -0.051395   0.000000
        CHANNELS 3 Xrotation Yrotation Zrotation
        JOINT rKnee
        {
            OFFSET   0.000000  -0.410000   0.000000
            CHANNELS 3 Xrotation Yrotation Zrotation
            JOINT rAnkle
            {
                OFFSET   0.000000  -0.390000   0.000000
                CHANNELS 3 Xrotation Yrotation Zrotation
                JOINT rToeJoint
                {
                    OFFSET   0.000000  -0.050000   0.130000
                    CHANNELS 3 Xrotation Yrotation Zrotation
                    End Site
                    {
                        OFFSET  -0.010000   0.002000   0.060000
                    }
                }
            }
        }
    }
    JOINT lHip
    {
        OFFSET   0.100000  -0.051395   0.000000
        CHANNELS 3 Xrotation Yrotation Zrotation
        JOINT lKnee
        {
            OFFSET   0.000000  -0.410000   0.000000
            CHANNELS 3 Xrotation Yrotation Zrotation
            JOINT lAnkle
            {
                OFFSET   0.000000  -0.390000   0.000000
                CHANNELS 3 Xrotation Yrotation Zrotation
                JOINT lToeJoint
                {
                    OFFSET   0.000000  -0.050000   0.130000
                    CHANNELS 3 Xrotation Yrotation Zrotation
                    End Site
                    {
                        OFFSET   0.010000   0.002000   0.060000
                    }
                }
            }
        }
    }
}
MOTION
Frames: 12
Frame Time:   0.008333
 -2.363824   0.905335   3.930380   2.443992  -0.562100   1.000540   6.861588   1.648109   0.474977  -1.477871   0.265773   0.570838  -4.375848  -0.578086   0.722516   1.850453  -1.174035  -0.820808   8.235492  15.658616  55.937521 179.995183  78.671458 -179.996581   1.815427   4.867060  -3.186370   5.478657   3.913857   0.107095  16.328433 -10.776468 -52.892887  -0.231795 -86.083708  -0.223241   1.259700  -4.612707   3.003804  -8.422498  -3.199113  -3.294661  22.200299   0.001136   0.002971 -16.567603  -6.705180  -1.177113  -5.056418  -0.000919  -0.001732 -19.258381   2.996850   4.270605  44.502116  -0.008705  -0.010125  -7.263030   7.141904  -0.252549 -13.678030  -0.008876  -0.007772
 -2.363715   0.906013   3.930775   2.365177  -0.842370   1.143769   6.844799   1.665932   0.364606  -1.330382   0.345340   0.521004  -4.378894  -0.615628   0.770292   1.819550  -1.183073  -0.760838   8.169093  15.758447  55.991213 179.996257  78.651302 -179.997355   1.811983   5.016551  -3.172863   5.691301   4.126166   0.030238  16.729069 -10.607392 -53.070404  -0.177886 -85.517956  -0.169430   1.218314  -4.273517   2.732590  -8.251499  -3.075400  -3.442799  21.924026   0.000933   0.002802 -16.091196  -6.597019  -1.157696  -4.470205  -0.000474  -0.001650 -19.235195   3.065127   4.134324  44.664671  -0.007131  -0.008411  -7.359997   7.220424  -0.324929 -12.904128  -0.006902  -0.007196
 -2.363449   0.906978   3.931428   2.344289  -1.060103   1.312450   6.756907   1.676976   0.236328  -1.228726   0.403314   0.455153  -4.388863  -0.648958   0.804859   1.841162  -1.247646  -0.718342   8.159104  15.821869  56.039650 179.997025  78.648132 -179.997900   1.800285   5.058300  -3.152539   5.893181   4.356965  -0.003612  17.107787 -10.439960 -53.234751  -0.135753 -85.017810  -0.127694   1.181965  -4.077843   2.504879  -8.018078  -2.948725  -3.617455  21.494628   0.000692   0.002661 -15.847684  -6.492417  -1.132848  -3.881555  -0.000302  -0.001299 -19.226982   3.153439   3.922963  44.740705  -0.005736  -0.006858  -7.454001   7.290931  -0.393802 -12.190984  -0.004992  -0.006433
 -2.363054   0.908015   3.932196   2.354344  -1.264457   1.499662   6.644572   1.689105   0.093215  -1.157116   0.453964   0.380255  -4.403630  -0.678981   0.832448   1.874115  -1.327156  -0.698449   8.164681  15.869545  56.077677 179.997632  78.646207 -179.998331   1.786635   5.059089  -3.139673   6.078602   4.585959  -0.003665  17.461301 -10.274061 -53.376739  -0.103894 -84.559857  -0.096473   1.149267  -3.949202   2.334898  -7.772885  -2.824796  -3.817382  20.992580   0.000443   0.002579 -15.585242  -6.399022  -1.126958  -3.364058  -0.000056  -0.001019 -19.231034   3.255184   3.668776  44.806815  -0.004599  -0.005602  -7.542740   7.356057  -0.458678 -11.541692  -0.003386  -0.005783
 -2.362559   0.909030   3.933035   2.381769  -1.465779   1.689696   6.523803   1.701340  -0.051529  -1.104641   0.500329   0.303426  -4.419901  -0.706589   0.855732   1.905445  -1.407955  -0.695047   8.172438  15.908695  56.106263 179.998125  78.643246 -179.998683   1.773377   5.051515  -3.139695   6.247323   4.805523   0.017649  17.789450 -10.112987 -53.499509  -0.080011 -84.136420  -0.073351   1.119077  -3.851640   2.209089  -7.531123  -2.701793  -4.026438  20.472096   0.000207   0.002521 -15.325293  -6.309341  -1.129893  -2.890332   0.000186  -0.000799 -19.239309   3.360019   3.400326  44.873780  -0.003682  -0.004602  -7.625740   7.416462  -0.519527 -10.949335  -0.002125  -0.005265
 -2.361983   0.909982   3.933931   2.420537  -1.665171   1.873132   6.400895   1.712497  -0.190649  -1.065682   0.542650   0.229336  -4.436358  -0.732233   0.876303   1.932342  -1.485657  -0.701772   8.178763  15.942514  56.128019 179.998529  78.639189 -179.998975   1.761070   5.045745  -3.151884   6.400563   5.012562   0.051079  18.093345  -9.959292 -53.607461  -0.062112 -83.743522  -0.056247   1.090885  -3.771829   2.113474  -7.298656  -2.580674  -4.234553  19.956928  -0.000006   0.002464 -15.077284  -6.221988  -1.137019  -2.456211   0.000394  -0.000627 -19.247689   3.462639   3.133634  44.940763  -0.002945  -0.003805  -7.703176   7.472664  -0.576445 -10.407755  -0.001173  -0.004841
 -2.361336   0.910853   3.934875   2.467664  -1.861730   2.045121   6.278847   1.721860  -0.320736  -1.036917   0.580750   0.160339  -4.452558  -0.756152   0.895056   1.955050  -1.558974  -0.713914   8.183194  15.972624  56.145226 179.998857  78.634461 -179.999214   1.749695   5.043582  -3.173146   6.539727   5.205979   0.090508  18.374435  -9.814423 -53.704104  -0.048660 -83.378437  -0.043566   1.064417  -3.704569   2.038018  -7.077923  -2.462543  -4.436431  19.458175  -0.000192   0.002397 -14.845388  -6.136963  -1.145887  -2.058344   0.000560  -0.000493 -19.254355   3.560647   2.876833  45.005996  -0.002354  -0.003164  -7.775368   7.525059  -0.629606  -9.911927  -0.000477  -0.004477
 -2.360593   0.912662   3.935976   2.558516  -2.022763   2.090463   6.073441   1.740773  -0.370253  -0.993586   0.612826   0.140523  -4.455899  -0.846728   0.972493   2.008710  -1.700764  -0.715848   8.419246  15.836707  56.240693 179.995570  78.954517 -179.996288   1.714308   5.305214  -3.166248   6.681628   5.394815   0.149904  18.572309  -9.663993 -53.932299  -0.039272 -83.436731  -0.035314   0.989151  -3.319221   1.882394  -6.861935  -2.386618  -4.524805  18.819535  -0.000471   0.002420 -13.927861  -6.162533  -0.795779  -1.815931  -0.000000  -0.000603 -19.058164   3.593006   2.670893  44.406092  -0.002052  -0.001251  -7.571402   7.533798  -0.731198  -9.441686   0.000499  -0.004397
 -2.359749   0.914863   3.937041   2.666404  -2.126927   2.123201   5.859056   1.717337  -0.430427  -0.953386   0.598714   0.137095  -4.460661  -0.931902   1.045184   2.120113  -1.884702  -0.717752   8.701122  15.680344  56.334122 179.992238  79.285815 -179.993333   1.666545   5.361281  -3.137471   6.796202   5.574640   0.240293  18.738921  -9.536531 -54.152905  -0.031850 -83.540111  -0.028852   0.918920  -3.168782   1.751439  -6.680326  -2.313257  -4.609767  18.183324  -0.000802   0.002149 -12.785167  -6.165729  -0.497200  -1.581305  -0.000275  -0.000524 -18.839426   3.624990   2.428224  43.735527  -0.002214   0.000308  -7.383119   7.540046  -0.826426  -8.987887   0.001449  -0.004182
 -2.358818   0.917168   3.938047   2.778263  -2.174869   2.166402   5.648629   1.652501  -0.509632  -0.914602   0.542567   0.130314  -4.464163  -1.011666   1.110404   2.251771  -2.087578  -0.730095   8.992700  15.520152  56.420544 179.989329  79.599940 -179.990653   1.615866   5.338648  -3.099375   6.888089   5.736141   0.358911  18.882405  -9.419664 -54.346617  -0.025746 -83.652482  -0.023471   0.854568  -3.131329   1.650632  -6.508621  -2.216204  -4.716800  17.552725  -0.001219   0.001522 -11.589217  -6.134593  -0.250509  -2.951316   0.000609  -0.001484 -18.623910   3.666882   2.145117  43.104080  -0.002619   0.001272  -7.208566   7.544785  -0.915645  -8.575781   0.002220  -0.003794
 -2.357819   0.919454   3.938992   2.889865  -2.208205   2.212850   5.446676   1.569628  -0.598987  -0.878546   0.465003   0.117941  -4.466413  -1.086147   1.168761   2.386819  -2.294000  -0.751488   9.278383  15.362221  56.498022 179.986864  79.894191 -179.988281   1.565774   5.289828  -3.062895   6.962931   5.881912   0.492955  19.008128  -9.309851 -54.515941  -0.020649 -83.764257  -0.018905   0.794674  -3.142439   1.578949  -6.356522  -2.126647  -4.831759  16.950592  -0.001536   0.000994 -10.386304  -6.105705  -0.030648  -4.328617   0.000998  -0.002228 -18.406361   3.718838   1.846025  42.524640  -0.003006   0.001883  -7.045871   7.548523  -0.999352  -8.201410   0.002768  -0.003396
 -2.356762   0.921651   3.939882   3.000851  -2.240210   2.257410   5.252677   1.476794  -0.692762  -0.846740   0.376027   0.101271  -4.467775  -1.155791   1.221489   2.518280  -2.496892  -0.779605   9.551699  15.209514  56.567351 179.984845  80.168597 -179.986254   1.517369   5.234105  -3.033105   7.025129   6.014268   0.633740  19.119872  -9.206571 -54.665701  -0.016366 -83.872344  -0.015014   0.738334  -3.176591   1.529094  -6.222836  -2.040749  -4.948106  16.378982  -0.001758   0.000592  -9.209817  -6.074099   0.166139  -5.669404   0.001062  -0.002744 -18.186893   3.774452   1.543995  41.995005  -0.003286   0.002272  -6.893928   7.551510  -1.077742  -7.860190   0.003110  -0.003040
